<svg width="20" height="20" viewBox="0 0 20 20" fill="none" xmlns="http://www.w3.org/2000/svg">
<g id="Bold / Money / Dollar">
<g id="Subtract">
<path d="M9.375 6.53965C8.59508 6.75291 8.125 7.35137 8.125 7.91675C8.125 8.48213 8.59508 9.08059 9.375 9.29385V6.53965Z" fill="#00B2FF"/>
<path d="M10.625 10.7063V13.4605C11.4049 13.2473 11.875 12.6488 11.875 12.0834C11.875 11.518 11.4049 10.9196 10.625 10.7063Z" fill="#00B2FF"/>
<path fill-rule="evenodd" clip-rule="evenodd" d="M18.3333 10.0001C18.3333 14.6025 14.6024 18.3334 10 18.3334C5.39762 18.3334 1.66666 14.6025 1.66666 10.0001C1.66666 5.39771 5.39762 1.66675 10 1.66675C14.6024 1.66675 18.3333 5.39771 18.3333 10.0001ZM10 4.37508C10.3452 4.37508 10.625 4.6549 10.625 5.00008V5.26403C11.9837 5.50731 13.125 6.52809 13.125 7.91675C13.125 8.26193 12.8452 8.54175 12.5 8.54175C12.1548 8.54175 11.875 8.26193 11.875 7.91675C11.875 7.35137 11.4049 6.75291 10.625 6.53965V9.43069C11.9837 9.67397 13.125 10.6948 13.125 12.0834C13.125 13.4721 11.9837 14.4929 10.625 14.7361V15.0001C10.625 15.3453 10.3452 15.6251 10 15.6251C9.65482 15.6251 9.375 15.3453 9.375 15.0001V14.7361C8.0163 14.4929 6.875 13.4721 6.875 12.0834C6.875 11.7382 7.15482 11.4584 7.5 11.4584C7.84518 11.4584 8.125 11.7382 8.125 12.0834C8.125 12.6488 8.59508 13.2473 9.375 13.4605V10.5695C8.0163 10.3262 6.875 9.30541 6.875 7.91675C6.875 6.52809 8.0163 5.50731 9.375 5.26403V5.00008C9.375 4.6549 9.65482 4.37508 10 4.37508Z" fill="#00B2FF"/>
</g>
</g>
</svg>
