<svg width="20" height="20" viewBox="0 0 20 20" fill="none" xmlns="http://www.w3.org/2000/svg">
<g id="Bold / Messages, Conversation / Pen New Round">
<g id="Vector">
<path d="M17.6615 2.33862C18.5573 3.23445 18.5573 4.68687 17.6615 5.5827L17.2485 5.99565C17.1283 5.96962 16.9768 5.92999 16.8042 5.87011C16.3423 5.70985 15.7352 5.40697 15.1642 4.83592C14.5931 4.26486 14.2902 3.65777 14.13 3.19583C14.0701 3.02325 14.0304 2.87182 14.0044 2.75158L14.4174 2.33862C15.3132 1.44279 16.7656 1.44279 17.6615 2.33862Z" fill="white"/>
<path d="M12.15 11.0941C11.8134 11.4308 11.645 11.5991 11.4594 11.7439C11.2405 11.9147 11.0036 12.0611 10.7529 12.1805C10.5404 12.2818 10.3145 12.3571 9.86284 12.5077L7.4809 13.3017C7.25861 13.3757 7.01354 13.3179 6.84786 13.1522C6.68218 12.9865 6.62432 12.7415 6.69842 12.5192L7.4924 10.1372C7.64297 9.68552 7.71825 9.45968 7.81952 9.24718C7.93899 8.99651 8.0854 8.7596 8.25618 8.54065C8.40095 8.35504 8.56929 8.1867 8.90597 7.85002L13.0027 3.75329C13.2225 4.33178 13.6077 5.04727 14.2803 5.7198C14.9528 6.39233 15.6683 6.77755 16.2468 6.99737L12.15 11.0941Z" fill="white"/>
<path d="M9.99999 18.3334C14.6024 18.3334 18.3333 14.6025 18.3333 10.0001C18.3333 9.00692 18.1596 8.05434 17.8408 7.17107L12.9883 12.0236C12.6956 12.3165 12.4757 12.5365 12.2282 12.7295C11.9377 12.9561 11.6233 13.1504 11.2907 13.309C11.0073 13.444 10.7122 13.5423 10.3194 13.6731L7.87618 14.4875C7.20472 14.7113 6.46444 14.5366 5.96397 14.0361C5.4635 13.5356 5.28875 12.7953 5.51256 12.1239L6.32695 9.68069C6.45779 9.28787 6.55609 8.99273 6.69112 8.7094C6.84964 8.37678 7.04393 8.06242 7.27054 7.77188C7.46357 7.5244 7.6836 7.30447 7.97643 7.01178L12.829 2.15923C11.9457 1.84049 10.9931 1.66675 9.99999 1.66675C5.39762 1.66675 1.66666 5.39771 1.66666 10.0001C1.66666 14.6025 5.39762 18.3334 9.99999 18.3334Z" fill="white"/>
</g>
</g>
</svg>
