<svg width="25" height="24" viewBox="0 0 25 24" fill="none" xmlns="http://www.w3.org/2000/svg">
<g id="Outline / Settings, Fine Tuning / Settings">
<g id="Vector">
<path fill-rule="evenodd" clip-rule="evenodd" d="M12.0114 8.25C9.94034 8.25 8.26141 9.92893 8.26141 12C8.26141 14.0711 9.94034 15.75 12.0114 15.75C14.0825 15.75 15.7614 14.0711 15.7614 12C15.7614 9.92893 14.0825 8.25 12.0114 8.25ZM9.76141 12C9.76141 10.7574 10.7688 9.75 12.0114 9.75C13.2541 9.75 14.2614 10.7574 14.2614 12C14.2614 13.2426 13.2541 14.25 12.0114 14.25C10.7688 14.25 9.76141 13.2426 9.76141 12Z" fill="#F4FBFF"/>
<path fill-rule="evenodd" clip-rule="evenodd" d="M11.9862 1.25C11.5417 1.24999 11.1706 1.24999 10.866 1.27077C10.5489 1.29241 10.2494 1.33905 9.95902 1.45933C9.28519 1.73844 8.74984 2.27379 8.47073 2.94762C8.32543 3.29842 8.28608 3.66812 8.27105 4.06996C8.25897 4.39299 8.09595 4.66251 7.85536 4.80141C7.61478 4.94031 7.29986 4.94673 7.01407 4.79568C6.65855 4.60777 6.3187 4.45699 5.94224 4.40743C5.21914 4.31223 4.48783 4.50819 3.9092 4.95219C3.65984 5.14353 3.46968 5.3796 3.2924 5.6434C3.12209 5.89681 2.93658 6.21815 2.71435 6.60307L2.6891 6.64681C2.46686 7.03172 2.28134 7.35304 2.14703 7.62723C2.00722 7.91267 1.89785 8.19539 1.85682 8.50701C1.76162 9.23012 1.95758 9.96142 2.40157 10.5401C2.63269 10.8412 2.93314 11.0602 3.27358 11.2741C3.54736 11.4461 3.69929 11.7221 3.69927 12C3.69926 12.2778 3.54733 12.5538 3.27358 12.7258C2.9331 12.9397 2.63262 13.1587 2.40148 13.4599C1.95748 14.0385 1.76153 14.7698 1.85672 15.4929C1.89775 15.8045 2.00712 16.0873 2.14693 16.3727C2.28124 16.6469 2.46676 16.9682 2.68899 17.3531L2.71425 17.3969C2.93648 17.7818 3.12199 18.1031 3.2923 18.3565C3.46958 18.6203 3.65974 18.8564 3.9091 19.0477C4.48773 19.4917 5.21904 19.6877 5.94214 19.5925C6.31858 19.5429 6.65841 19.3922 7.01391 19.2043C7.29974 19.0532 7.6147 19.0596 7.85531 19.1986C8.09593 19.3375 8.25897 19.607 8.27105 19.9301C8.28608 20.3319 8.32544 20.7016 8.47073 21.0524C8.74984 21.7262 9.2852 22.2616 9.95902 22.5407C10.2494 22.661 10.5489 22.7076 10.866 22.7292C11.1706 22.75 11.5417 22.75 11.9861 22.75H12.0367C12.4811 22.75 12.8522 22.75 13.1568 22.7292C13.4739 22.7076 13.7734 22.661 14.0638 22.5407C14.7376 22.2616 15.273 21.7262 15.5521 21.0524C15.6974 20.7016 15.7367 20.3319 15.7518 19.93C15.7638 19.607 15.9268 19.3375 16.1674 19.1985C16.408 19.0596 16.723 19.0532 17.0088 19.2042C17.3643 19.3921 17.7041 19.5429 18.0806 19.5924C18.8037 19.6876 19.535 19.4917 20.1136 19.0477C20.363 18.8563 20.5531 18.6203 20.7304 18.3565C20.9007 18.1031 21.0862 17.7818 21.3084 17.3969L21.3337 17.3531C21.5559 16.9682 21.7415 16.6468 21.8758 16.3726C22.0156 16.0872 22.125 15.8045 22.166 15.4929C22.2612 14.7697 22.0652 14.0384 21.6212 13.4598C21.3901 13.1586 21.0896 12.9397 20.7492 12.7258C20.4754 12.5538 20.3235 12.2778 20.3235 11.9999C20.3235 11.7221 20.4755 11.4462 20.7492 11.2742C21.0897 11.0603 21.3902 10.8414 21.6213 10.5401C22.0653 9.96149 22.2613 9.23019 22.1661 8.50708C22.1251 8.19546 22.0157 7.91274 21.8759 7.6273C21.7416 7.35313 21.5561 7.03183 21.3339 6.64695L21.3086 6.60318C21.0863 6.21825 20.9008 5.89688 20.7305 5.64347C20.5532 5.37967 20.3631 5.1436 20.1137 4.95225C19.5351 4.50826 18.8038 4.3123 18.0807 4.4075C17.7042 4.45706 17.3644 4.60782 17.0089 4.79572C16.7231 4.94679 16.4081 4.94036 16.1675 4.80144C15.9269 4.66253 15.7638 4.39297 15.7518 4.06991C15.7367 3.66808 15.6974 3.2984 15.5521 2.94762C15.273 2.27379 14.7376 1.73844 14.0638 1.45933C13.7734 1.33905 13.4739 1.29241 13.1568 1.27077C12.8522 1.24999 12.4811 1.24999 12.0367 1.25H11.9862ZM10.533 2.84515C10.6102 2.81319 10.7274 2.78372 10.9681 2.76729C11.2156 2.75041 11.5352 2.75 12.0114 2.75C12.4876 2.75 12.8072 2.75041 13.0547 2.76729C13.2954 2.78372 13.4126 2.81319 13.4898 2.84515C13.796 2.97202 14.0394 3.21536 14.1663 3.52165C14.2063 3.61826 14.2394 3.76887 14.2528 4.12597C14.2824 4.91835 14.6914 5.68129 15.4175 6.10048C16.1436 6.51968 17.0088 6.4924 17.7098 6.12188C18.0257 5.9549 18.1728 5.90832 18.2764 5.89467C18.6051 5.8514 18.9375 5.94047 19.2006 6.14228C19.2668 6.19312 19.3509 6.27989 19.4855 6.48016C19.6239 6.68603 19.784 6.9626 20.0221 7.375C20.2602 7.78741 20.4197 8.06438 20.5288 8.28713C20.6349 8.50382 20.668 8.62007 20.6789 8.70287C20.7222 9.03155 20.6331 9.36397 20.4313 9.62698C20.3676 9.70995 20.2538 9.81399 19.9511 10.0041C19.2798 10.426 18.8236 11.1616 18.8235 11.9999C18.8235 12.8383 19.2797 13.574 19.9511 13.9959C20.2537 14.186 20.3675 14.29 20.4312 14.373C20.633 14.636 20.7221 14.9684 20.6788 15.2971C20.6679 15.3799 20.6348 15.4961 20.5287 15.7128C20.4196 15.9355 20.2601 16.2125 20.022 16.6249C19.7839 17.0373 19.6238 17.3139 19.4854 17.5198C19.3508 17.72 19.2667 17.8068 19.2005 17.8576C18.9374 18.0595 18.605 18.1485 18.2763 18.1053C18.1727 18.0916 18.0257 18.045 17.7097 17.8781C17.0087 17.5075 16.1434 17.4803 15.4173 17.8995C14.6914 18.3187 14.2824 19.0816 14.2528 19.874C14.2394 20.2311 14.2063 20.3817 14.1663 20.4784C14.0394 20.7846 13.796 21.028 13.4898 21.1549C13.4126 21.1868 13.2954 21.2163 13.0547 21.2327C12.8072 21.2496 12.4876 21.25 12.0114 21.25C11.5352 21.25 11.2156 21.2496 10.9681 21.2327C10.7274 21.2163 10.6102 21.1868 10.533 21.1549C10.2268 21.028 9.98342 20.7846 9.85655 20.4784C9.81653 20.3817 9.78336 20.2311 9.77 19.874C9.74037 19.0817 9.33138 18.3187 8.60531 17.8995C7.87925 17.4803 7.01403 17.5076 6.31299 17.8781C5.99706 18.0451 5.85004 18.0917 5.74636 18.1053C5.41767 18.1486 5.08526 18.0595 4.82225 17.8577C4.75599 17.8069 4.67186 17.7201 4.53727 17.5198C4.39892 17.314 4.23877 17.0374 4.00067 16.625C3.76256 16.2126 3.60312 15.9356 3.49401 15.7129C3.38787 15.4962 3.35479 15.3799 3.34389 15.2971C3.30062 14.9684 3.38969 14.636 3.59151 14.373C3.65517 14.2901 3.76902 14.186 4.07161 13.9959C4.74299 13.5741 5.19923 12.8384 5.19927 12.0001C5.19932 11.1616 4.74306 10.4259 4.07162 10.004C3.7691 9.81389 3.65526 9.70987 3.5916 9.62691C3.38979 9.3639 3.30072 9.03149 3.34399 8.7028C3.35489 8.62001 3.38797 8.50375 3.49411 8.28707C3.60322 8.06431 3.76266 7.78734 4.00076 7.37493C4.23887 6.96253 4.39901 6.68596 4.53737 6.48009C4.67195 6.27983 4.75609 6.19305 4.82234 6.14222C5.08536 5.9404 5.41777 5.85133 5.74645 5.8946C5.85014 5.90825 5.99717 5.95483 6.31314 6.12184C7.01414 6.49235 7.87932 6.51962 8.60535 6.10045C9.33139 5.68128 9.74037 4.91837 9.77 4.12602C9.78336 3.76889 9.81653 3.61827 9.85655 3.52165C9.98342 3.21536 10.2268 2.97202 10.533 2.84515Z" fill="#F4FBFF"/>
</g>
</g>
</svg>
