<svg width="26" height="20" viewBox="0 0 26 20" fill="none" xmlns="http://www.w3.org/2000/svg">
<path id="Union" fill-rule="evenodd" clip-rule="evenodd" d="M10 17.6923C14.2483 17.6923 17.6923 14.2483 17.6923 10C17.6923 5.75166 14.2483 2.30769 10 2.30769C5.75166 2.30769 2.30769 5.75166 2.30769 10C2.30769 14.2483 5.75166 17.6923 10 17.6923ZM10 20C15.5228 20 20 15.5228 20 10C20 4.47715 15.5228 0 10 0C4.47715 0 0 4.47715 0 10C0 15.5228 4.47715 20 10 20ZM13.0769 10.0001C13.0769 11.6995 11.6993 13.0771 9.99999 13.0771C8.30065 13.0771 6.92307 11.6995 6.92307 10.0001C6.92307 8.3008 8.30065 6.92322 9.99999 6.92322C11.6993 6.92322 13.0769 8.3008 13.0769 10.0001ZM19.6449 1.2308C19.0501 1.00204 18.3825 1.29876 18.1537 1.89353C17.925 2.48831 18.2217 3.15592 18.8164 3.38468C20.8369 4.16178 22.3551 6.33404 22.6521 8.83791C22.9423 11.2834 22.0436 13.9005 19.3883 15.56C18.848 15.8978 18.6837 16.6097 19.0214 17.15C19.3592 17.6904 20.071 17.8547 20.6114 17.517C24.11 15.3303 25.3267 11.7936 24.9438 8.56603C24.5678 5.39682 22.6244 2.37677 19.6449 1.2308Z" fill="white"/>
</svg>
